<svg width="209" height="45" viewBox="0 0 209 45" fill="none" xmlns="http://www.w3.org/2000/svg">
<path d="M38.8042 31.5319H42.8782L44.2528 28.1498H52.3508L53.7254 31.5319H57.9494L50.4763 14.1243H46.4023L38.8042 31.5319ZM45.5525 24.9916L48.3268 18.2275L51.0761 24.9916H45.5525Z" fill="#EE6337"/>
<path d="M59.7686 31.5319H71.2157V28.1001H63.7176V14.1243H59.7686V31.5319Z" fill="#EE6337"/>
<path d="M72.3094 22.8032C72.3094 27.8514 76.2584 31.706 81.4821 31.706C84.0314 31.706 86.7058 30.4874 88.5553 28.5975L86.2309 26.0858C84.9812 27.3292 83.2566 28.125 81.682 28.125C78.6828 28.125 76.3584 25.7874 76.3584 22.7535C76.3584 19.7196 78.6828 17.4069 81.682 17.4069C83.3066 17.4069 85.0312 18.3021 86.2309 19.6699L88.5303 16.8847C86.8057 15.119 84.1564 14 81.6321 14C76.3334 14 72.3094 17.7799 72.3094 22.8032Z" fill="#EE6337"/>
<path d="M90.9131 31.5319H94.8621V24.6683H102.785V31.5319H106.734V14.1243H102.785V21.3858H94.8621V14.1243H90.9131V31.5319Z" fill="#EE6337"/>
<path d="M110.586 31.5319H124.182V28.2742H114.535V24.4196H122.983V21.1619H114.535V17.382H123.908V14.1243H110.586V31.5319Z" fill="#EE6337"/>
<path d="M127.281 31.5319H131.23V26.5583H135.254L138.028 31.5319H142.502L138.778 25.7874C140.902 24.7927 142.052 22.853 142.052 20.1672C142.052 16.3127 139.453 14.1243 134.879 14.1243H127.281V31.5319ZM131.23 23.2757V17.382H134.879C137.053 17.382 138.303 18.3519 138.303 20.2916C138.303 22.281 137.053 23.2757 134.879 23.2757H131.23Z" fill="#EE6337"/>
<path d="M145.367 31.5319H149.316V14.1243H145.367V31.5319Z" fill="#EE6337"/>
<path d="M153.202 31.5319H156.976V20.3662L165.449 31.5319H169.048V14.1243H165.299V25.3149L156.801 14.1243H153.202V31.5319Z" fill="#EE6337"/>
<path d="M171.65 22.8281C171.65 27.8763 175.674 31.706 180.972 31.706C183.397 31.706 186.221 30.7858 188.07 29.443V22.7535H184.646V27.3292C183.522 27.9012 182.272 28.2742 181.222 28.2742C178.123 28.2742 175.699 25.9117 175.699 22.8281C175.699 19.7693 178.098 17.4069 181.197 17.4069C182.897 17.4069 184.696 18.1529 185.996 19.3466L188.22 16.5365C186.446 14.9947 183.796 14 181.197 14C175.749 14 171.65 17.8048 171.65 22.8281Z" fill="#EE6337"/>
<path d="M189.523 31.5319H193.597L194.972 28.1498H203.07L204.444 31.5319H208.668L201.195 14.1243H197.121L189.523 31.5319ZM196.271 24.9916L199.046 18.2275L201.795 24.9916H196.271Z" fill="#EE6337"/>
<g clip-path="url(#clip0_869_4932)">
<path d="M16.9 41.8C16.7999 41.7 16.9 41.5 16.7999 41.4C16.7999 41.5 16.7 41.6 16.7 41.7C16.7 41.8 16.7 41.9 16.7 42C16.7 42.2 16.7 42.2 16.5 42.2C16.4 42.2 16.2999 42.2 16.2999 42.2C16.0999 42.2 15.9 42.2 15.7 42.3C15.5 42.3 15.3 42.4 15.2 42.4C15 42.4 14.8 42.4 14.6 42.4C14.3 42.4 14.1 42.4 13.8 42.4C13.4 42.4 13 42.4 12.6 42.4C12.6 42.4 12.6 42.4 12.6 42.5C12.6 42.5 12.7 42.6 12.6 42.6C12.6 42.6 12.5 42.6 12.5 42.5C12.4 42.5 12.5 42.4 12.5 42.4C12.2 42.4 11.8 42.4 11.5 42.4C11.2 42.4 10.9 42.4 10.7 42.4C10.5 42.4 10.3 42.4 10.1 42.4H9.99995C9.89995 42.5 9.79995 42.5 9.69995 42.5C9.09995 42.5 8.49995 42.5 7.99995 42.5C7.59995 42.5 7.29995 42.5 6.89995 42.5C6.69995 42.5 6.49995 42.5 6.39995 42.5H6.29995C6.09995 42.4 5.89995 42.4 5.79995 42.6C5.79995 42.6 5.69995 42.7 5.69995 42.6C5.49995 42.6 5.29995 42.6 5.09995 42.6C4.99995 42.6 4.79995 42.6 4.69995 42.6C4.69995 42.6 4.59995 42.6 4.59995 42.5C4.49995 42.4 4.29995 42.4 4.09995 42.4C4.09995 42.5 4.19995 42.5 4.19995 42.5C4.19995 42.6 4.09995 42.5 3.99995 42.5C3.39995 42.5 2.69995 42.5 2.09995 42.5C1.89995 42.5 1.69995 42.5 1.39995 42.5C1.09995 42.5 0.899951 42.5 0.599951 42.4C0.499951 42.4 0.499951 42.4 0.499951 42.3C0.399951 42.2 0.299951 42 0.199951 41.9C0.199951 41.9 0.199951 41.8 0.199951 41.7C0.199951 39.9 0.199951 38 0.199951 36.2C0.199951 34.6 0.199951 32.9 0.199951 31.3C0.199951 30.9 0.199951 30.6 0.199951 30.2C0.199951 30 0.199951 29.8 0.199951 29.6C0.199951 29.5 0.199951 29.3 0.199951 29.2C0.199951 29 0.199951 28.9 0.199951 28.7V28.6C0.199951 28.3 0.199951 28 0.199951 27.7C0.199951 27.6 0.199951 27.4 0.199951 27.3V27.2C0.299951 27.1 0.299951 27.1 0.299951 27V26.9C0.299951 26.7 0.299951 26.4 0.199951 26.2C0.199951 26.1 0.199951 26 0.199951 25.9C0.199951 25.6 0.199951 25.4 0.199951 25.1V25C0.399951 24.8 0.499951 24.7 0.699951 24.5C0.799951 24.5 0.799951 24.4 0.899951 24.4C1.39995 24.4 1.89995 24.4 2.39995 24.4C3.99995 24.4 5.49995 24.4 7.09995 24.4C7.69995 24.4 8.29995 24.4 8.89995 24.4C9.29995 24.4 9.69995 24.4 10.1 24.4C10.4 24.4 10.7 24.4 11 24.4C11.3 24.4 11.5 24.4 11.8 24.4C12.2 24.4 12.6 24.4 13 24.4C13.6 24.4 14.2 24.4 14.9 24.4C15.1 24.4 15.1 24.4 15.1 24.6C15.1 24.8 15.1 25 15 25.2C15 25.4 14.9 25.7 14.9 25.9C14.9 26.1 14.8 26.4 14.8 26.6C14.7 26.9 14.7 27.1 14.6 27.4C14.5 27.8 14.4 28.2 14.3 28.6C14.2 29.2 14 29.7 13.8 30.2C13.6 30.8 13.3 31.3 12.9 31.8C12.7 32.1 12.4 32.5 12.2 32.8C11.8 33.3 11.4 33.7 10.9 34.2C10.7 34.4 10.4 34.7 10.2 34.9C9.99995 35.1 9.69995 35.4 9.49995 35.6C9.29995 35.8 9.09995 36 8.79995 36.2C8.39995 36.5 8.09995 36.9 7.69995 37.3C7.59995 37.4 7.49995 37.4 7.49995 37.3C7.39995 37.2 7.29995 37.2 7.19995 37.3C6.99995 37.5 6.79995 37.8 6.69995 38C6.39995 38.4 6.19995 38.9 5.99995 39.3C5.79995 39.6 5.69995 40 5.69995 40.3C5.69995 40.6 5.69995 41 5.79995 41.3C5.89995 41.5 5.99995 41.6 6.19995 41.8C6.29995 41.8 6.29995 41.8 6.39995 41.7C6.59995 41.4 6.69995 41.1 6.89995 40.9C7.19995 40.3 7.49995 39.7 7.89995 39.1C7.69995 39 7.99995 38.7 8.19995 38.4C8.39995 38.1 8.69995 37.9 8.89995 37.6C9.19995 37.3 9.49995 37 9.79995 36.7C9.99995 36.4 10.3 36.2 10.6 36C11.1 35.5 11.7 35.1 12.3 34.7C12.6 34.5 13 34.2 13.3 34C13.4 34 13.4 34 13.4 34.1C13.5 34.5 13.5 34.9 13.4 35.3C13.3 35.9 13.1 36.5 13 37.1C12.9 37.5 12.8 37.9 12.7 38.3C12.7 38.4 12.7 38.5 12.7 38.7C12.7 39 12.6 39.2 12.5 39.4C12.4 39.5 12.4 39.6 12.3 39.7C12.2 39.9 12.3 40 12.4 40.1C12.6 40.3 12.8 40.5 13 40.6C13.5 40.9 13.9 41.2 14.4 41.5C14.7 41.6 15 41.8 15.3 41.8C15.6 41.9 15.9 41.9 16.2 41.8C16.2 41.8 16.2999 41.8 16.2999 41.7C16.2999 41.6 16.2 41.6 16.2 41.5C16 41.3 15.7 41.1 15.4 41C15.1 40.8 14.8 40.6 14.6 40.4C14.4 40.2 14.2 39.9 14.1 39.6C14 39.4 14 39.3 14 39.1C14 38.4 14.1 37.8 14.3 37.2C14.4 36.7 14.6 36.1 14.8 35.6C15 35.2 15.2 34.8 15.4 34.4C15.8 33.6 16.1 32.9 16.5 32.1C16.6 31.9 16.7 31.8 16.7 31.6L16.7999 31.5V31.6C16.7999 32.6 16.7999 33.7 16.7999 34.7C16.7999 35.7 16.7999 36.7 16.7999 37.7C16.7999 38 16.7999 38.4 16.7999 38.7C16.7999 38.8 16.7999 39 16.7999 39.1C16.7999 39.3 16.7999 39.5 16.7999 39.6C16.7999 40 16.7999 40.4 16.7999 40.8C16.9 41.3 17 41.5 16.9 41.8ZM0.399951 40.4C0.299951 40.3 0.299951 40.2 0.399951 40.4C0.299951 40.3 0.199951 40.4 0.199951 40.4C0.199951 40.4 0.199951 40.4 0.399951 40.4C0.299951 40.4 0.299951 40.4 0.399951 40.4Z" fill="#EE6337"/>
<path d="M25.1 22.1C25.7 22.1 26.1 22.1 26.6 22.1H26.7001C26.6001 22.1 26.6 22.1 26.5 22.1C26.3 22.1 26 22.1 25.8 22.1C25.4 22.1 25.1001 22.1 24.7001 22.1C24.5001 22.1 24.3 22.1 24 22.1C23.9 22.1 23.8001 22.1 23.7001 22C23.7001 21.9 23.6 21.9 23.5 21.9C23.1 21.9 22.8 21.9 22.4 21.9C22.5 21.9 22.7 21.9 22.8 22C22.5 22.2 21.5 22.2 21.4 22C21.5 22 21.6001 22 21.7001 21.9C21.5001 21.8 21.1 21.8 21 21.9L21.1 22C21.2 22.1 21.1 22.1 21.1 22.1C20.9 22.1 20.6 22.1 20.4 22.1C20.3 22.1 20.3 22 20.3 22C20.3 21.9 20.3 21.7 20.3 21.6C20.3 21.4 20.4 21.2 20.4 21C20.4 20.8 20.5 20.6 20.5 20.4C20.5 20.2 20.5 20 20.6 19.8C20.6 19.6 20.7001 19.3 20.7001 19.1C20.7001 19 20.7001 18.9 20.7001 18.8C20.7001 18.6 20.7001 18.4 20.7001 18.2C20.7001 17.6 20.7001 16.9 20.7001 16.3C20.7001 16 20.7001 15.7 20.7001 15.4C20.7001 15.1 20.7001 14.8 20.7001 14.5C20.7001 14.1 20.8 13.7 21 13.3C21.2 12.8 21.5001 12.4 21.7001 12C22.0001 11.5 22.2 11 22.5 10.5C22.8 10 23.0001 9.5 23.2001 8.9C23.5001 8.3 23.7 7.7 24 7.1C24.2 6.6 24.4 6.1 24.5 5.6C24.6 5.3 24.7001 5 24.7001 4.7C24.6001 4.7 24.6 4.8 24.5 4.9C24.4 5.4 24.2 5.9 23.9 6.3C23.8 6.5 23.5 6.5 23.3 6.5C23.3 6.5 23.2 6.5 23.1 6.5C23.1 6.5 23 6.5 23 6.6V6.7C23 7.3 22.9001 7.8 22.7001 8.3C22.6001 8.6 22.4 8.9 22.3 9.3C22 9.9 21.7 10.4 21.3 11C21.1 11.3 20.9001 11.5 20.7001 11.8C20.6001 11.9 20.5 12.1 20.3 12.2C20 12.5 19.6 12.8 19 13C19 13 18.9 13 18.8 13C18.8 12.9 18.8 12.9 18.8 12.8C18.8 10.4 18.8 8 18.8 5.5C18.8 5.3 18.8 5.1 18.8 4.9C18.8 4.7 18.8 4.5 19 4.4C19.1 4.3 19.2 4.2 19.3 4.1C19.2 4 19.3 4 19.4 4C20 4 20.6001 4 21.2001 4C22.5001 4 23.8 4 25.1 4C26.7 4 28.4 4 30 4C30.9 4 31.8001 4 32.7001 4C32.8001 4 33 4 33.1 4.2C33.2 4.3 33.4 4.5 33.5 4.6C33.6 4.7 33.6001 4.7 33.4001 4.8C33.3001 4.8 33.3 4.8 33.3 4.9C33.3 5.2 33.3 5.4 33.3 5.7C33.3 6 33.3 6.3 33.3 6.6C33.3 6.8 33.2001 7.1 33.2001 7.3C33.2001 7.4 33.2001 7.6 33.2001 7.7C33.2001 8.4 33.2001 9.1 33.2001 9.9C33.2001 11.8 33.2001 13.6 33.2001 15.5C33.2001 16.1 33.2001 16.7 33.2001 17.3C33.2001 17.6 33.3 17.9 33.3 18.2C33.3 18.3 33.3 18.5 33.3 18.6C33.2 18.9 33.2001 19.2 33.2001 19.5C33.2001 19.8 33.2001 20.2 33.2001 20.5C33.2001 20.7 33.2 21 33.1 21.2C33.1 21.2 33.1 21.3 33.1 21.2C33 21.2 33 21.2 33 21.3C33 21.5 33 21.7 33 21.9C33 22 33.0001 22 32.9001 22C32.8001 22 32.6 22 32.5 22C32.3 22 32.2 22 32 22C31.6 22 31.3 22 30.9 22C30.2 22 29.4001 22 28.7001 22C28.1 22 27.6 22 27 22C26.8 22 26.5 22 26.3 22C26 22 25.8 22 25.5 22C25.4 22 25.3 22 25.1 22.1Z" fill="#EE6337"/>
<path d="M31.6 39.8C31.6 40 31.6 40.2 31.6 40.4C31.6 40.6 31.6 40.6 31.4 40.6C31.1 40.6 30.9 40.6 30.6 40.6C30.1 40.6 29.7 40.6 29.2 40.6C28.9 40.6 28.5 40.6 28.2 40.6C28.1 40.6 28 40.6 27.9 40.7C27.8 40.8 27.7 40.8 27.7 40.7C27.7 40.7 27.7 40.6 27.8 40.5C27.6 40.5 27.4 40.5 27.3 40.5C26.3 40.5 25.4 40.5 24.4 40.5C24.2 40.5 24.1 40.5 23.9 40.6C24 40.6 24 40.7 24.1 40.7C24.6 40.7 25.1 40.7 25.5 40.7H25.6C25.6 40.8 25.6 40.8 25.5 40.8C25.3 40.8 25.2 40.9 25 40.9C24.5 40.9 24 40.9 23.5 40.9C23.3 40.9 23 40.9 22.8 40.9C22.7 40.9 22.7 40.9 22.6 40.8C22.6 40.7 22.5 40.7 22.4 40.7C22.1 40.7 21.8 40.7 21.4 40.7C21.5 40.7 21.6 40.7 21.7 40.8H21.8C21.6 41 21.5 41 21.4 41C21.1 41 20.9 41 20.6 41C20.5 41 20.5 41 20.4 40.9C20.4 40.9 20.5 40.9 20.6 40.8C20.5 40.8 20.4 40.8 20.4 40.8C20.3 40.8 20.3 40.9 20.3 40.9C20.3 41 20.3 41 20.2 41C20 41 19.8 41.1 19.5 41.1C19.3 41.1 19 41.1 18.8 41.1C18.6 41.1 18.5 41 18.4 40.9C18.3 40.8 18.2 40.6 18.1 40.5C18 40.5 18 40.4 18 40.3C18 36.7 18 33.1 18 29.6C18 29.3 18.1 29.1 18.2 28.9C18.5 27.9 18.9 27 19.2 26C19.4 25.2 19.7 24.5 19.9 23.7C19.9 23.6 20 23.5 20 23.4C20 23.3 20.2 23.3 20.3 23.3C20.8 23.3 21.2 23.3 21.7 23.3C22 23.3 22.2 23.3 22.5 23.3C25.5 23.3 28.5 23.3 31.5 23.3C31.6 23.3 31.7 23.3 31.8 23.4C31.9 23.5 32 23.6 32 23.7C32.1 23.9 32.2 24.1 32.1 24.3C32 24.4 32 24.6 32.1 24.7C32.1 24.8 32.1 24.9 32.1 25C32.1 25.4 32.1 25.7 32.1 26.1C32.1 26.5 32.1 26.8 32.1 27.2C32.1 27.5 32.1 27.8 32.1 28.1C32.1 28.9 32.1 29.7 32.1 30.5C32.1 31.4 32.1 32.3 32.1 33.2C32.1 33.5 32.1 33.8 32.1 34.1C32.1 34.4 32.1 34.7 32.1 35C32.1 35.2 32.1 35.3 32.1 35.5C32.1 35.9 32.1 36.3 32.2 36.6C32.2 36.8 32.2 36.9 32.2 37.1C32.2 37.3 32.2 37.5 32.1 37.7C32.1 37.8 32.1 37.8 32.1 37.9C32.1 38.2 32.1 38.6 32.1 38.9C32.1 39.2 32.1 39.4 32.1 39.7C32.1 39.8 32.1 39.8 32.1 39.9C31.7 39.9 31.7 39.9 31.6 39.8Z" fill="#EE6337"/>
<path d="M5.4001 7.4C5.5001 7.7 5.7001 7.8 5.9001 8C6.1001 8.3 6.3001 8.5 6.5001 8.8C6.7001 9.1 6.9001 9.4 7.2001 9.6C7.5001 9.9 7.7001 10.3 8.0001 10.6C8.3001 11 8.5001 11.4 8.9001 11.7C9.1001 12.2 9.5001 12.4 10.0001 12.5C10.4001 12.6 10.7001 12.7 11.1001 12.8C11.5001 12.9 11.8001 13 12.1001 13.2C12.5001 13.4 12.8001 13.6 13.1001 13.9C13.3001 14.1 13.6001 14.3 13.8001 14.5C14.1001 14.8 14.5001 15.1 14.8001 15.4C15.2001 15.8 15.6001 16.3 16.0001 16.8C16.2001 17.1 16.4001 17.5 16.5001 17.9C16.5001 18 16.5001 18.2 16.5001 18.4C16.5001 18.8 16.5001 19.1 16.4001 19.5C16.3001 19.8 16.1001 20.1 16.0001 20.3C15.9001 20.6 15.7001 20.8 15.6001 21.1C15.4001 21.4 15.3001 21.7 15.3001 22.1C15.2001 22.4 15.2001 22.7 15.1001 23C15.1001 23.2 15.1001 23.4 15.0001 23.5C15.0001 23.6 15.0001 23.6 14.9001 23.6C14.4001 23.6 14.0001 23.6 13.5001 23.6C12.8001 23.6 12.1001 23.6 11.4001 23.6C10.9001 23.6 10.4001 23.6 9.9001 23.6H10.0001C10.3001 23.6 10.6001 23.6 10.8001 23.6C10.8001 23.6 11.0001 23.6 10.9001 23.7C10.9001 23.7 10.8001 23.7 10.7001 23.7C10.5001 23.7 10.3001 23.7 10.0001 23.7C9.4001 23.7 8.8001 23.7 8.1001 23.7C8.0001 23.7 7.8001 23.7 7.7001 23.6C7.7001 23.6 7.6001 23.5 7.6001 23.6V23.7C7.6001 23.7 7.6001 23.7 7.6001 23.8C7.5001 23.9 7.5001 23.9 7.4001 23.9C7.4001 23.9 7.3001 23.9 7.3001 23.8C7.3001 23.6 7.1001 23.6 7.0001 23.6C6.5001 23.5 5.9001 23.6 5.4001 23.6C5.3001 23.6 5.2001 23.6 5.0001 23.6C5.1001 23.6 5.2001 23.7 5.2001 23.7C5.2001 23.7 5.3001 23.7 5.3001 23.8C5.3001 23.8 5.3001 23.8 5.2001 23.8C5.1001 23.8 5.1001 23.8 5.0001 23.8C4.4001 23.9 3.9001 23.9 3.3001 23.9C3.1001 23.9 3.0001 23.9 2.9001 23.7L2.8001 23.6C2.6001 23.5 2.6001 23.3 2.6001 23.1C2.6001 20.3 2.6001 17.6 2.6001 14.8C2.6001 12 2.6001 9.1 2.6001 6.3C2.6001 6.1 2.6001 5.9 2.8001 5.8C3.0001 5.8 3.1001 5.7 3.2001 5.6H3.3001C3.7001 5.6 4.2001 5.6 4.6001 5.6C6.7001 5.6 8.9001 5.6 11.0001 5.6C11.2001 5.6 11.5001 5.6 11.7001 5.6C12.3001 5.6 12.9001 5.6 13.5001 5.6C14.0001 5.6 14.6001 5.6 15.1001 5.6C15.7001 5.6 16.3001 5.6 16.8001 5.6C16.9001 5.6 17.0001 5.6 17.0001 5.7C17.1001 5.8 17.3001 6 17.4001 6.1C17.5001 6.2 17.5001 6.2 17.5001 6.3C17.5001 7.1 17.5001 7.9 17.5001 8.7C17.5001 9.8 17.5001 10.9 17.5001 12C17.5001 12.2 17.5001 12.4 17.4001 12.6C17.4001 12.6 17.4001 12.7 17.3001 12.7C17.3001 12.7 17.2001 12.7 17.2001 12.6C17.1001 12.5 17.1001 12.4 17.1001 12.3C17.0001 12 17.0001 11.6 17.0001 11.3C17.0001 10.9 17.1001 10.6 17.1001 10.2C17.1001 9.8 17.2001 9.5 17.0001 9.1C16.9001 8.9 16.8001 8.8 16.6001 8.7C16.4001 8.6 16.2001 8.5 15.9001 8.4C15.4001 8.3 14.9001 8.4 14.5001 8.9C14.3001 9.2 14.1001 9.6 14.0001 10C13.9001 10.4 13.9001 10.8 14.1001 11.2C14.2001 11.4 14.3001 11.6 14.5001 11.8C14.6001 11.9 14.8001 12 14.9001 12.2C15.0001 12.3 15.0001 12.3 14.9001 12.4C14.9001 12.4 14.9001 12.4 14.8001 12.4C14.6001 12.4 14.3001 12.4 14.1001 12.4C13.5001 12.4 12.9001 12.3 12.4001 12.1C11.9001 11.9 11.4001 11.7 10.9001 11.5C10.4001 11.3 9.8001 11 9.2001 10.6C8.8001 10.3 8.4001 10.1 8.0001 9.7C7.6001 9.4 7.2001 9 7.0001 8.5C7.0001 8.4 6.9001 8.3 6.8001 8.2C6.8001 8.1 6.7001 8.1 6.7001 8.2C6.5001 8.4 6.5001 8.4 6.3001 8.2C6.1001 8.1 5.9001 7.8 5.6001 7.6C5.6001 7.5 5.5001 7.5 5.4001 7.4Z" fill="#EE6337"/>
<path d="M6.3 23.7C6.4 23.7 6.6 23.7 6.8 23.7C6.8 23.7 6.9 23.7 6.9 23.8L6.8 23.9C6.5 23.9 6.3 23.9 6 23.9C5.9 23.9 5.8 23.9 5.6 23.8C5.6 23.8 5.5 23.8 5.5 23.7C5.5 23.7 5.5 23.7 5.6 23.6C5.7 23.5 5.9 23.5 6 23.5C6.1 23.6 6.2 23.7 6.3 23.7Z" fill="#EE6337"/>
<path d="M22.5001 40.9C22.5001 41 22.5001 41 22.5001 40.9C22.4001 41 22.3001 41 22.2001 41C22.2001 41 22.1001 41 22.1001 40.9C22.1001 40.9 22.1001 40.8 22.2001 40.8C22.3001 40.9 22.4001 40.9 22.5001 40.9Z" fill="#EE6337"/>
<path d="M23.4001 22.3H23.3001C23.2001 22.2 23.2001 22.2 23.3001 22.2C23.4001 22.2 23.4001 22.2 23.5001 22.2L23.6001 22.3C23.6001 22.3 23.5001 22.3 23.4001 22.3Z" fill="#EE6337"/>
<path d="M13.3001 23.7C13.3001 23.8 13.2001 23.8 13.2001 23.8C13.1001 23.8 13.1001 23.8 13.1001 23.7C13.1001 23.6 13.2001 23.6 13.2001 23.6C13.2001 23.6 13.2001 23.7 13.3001 23.7Z" fill="#EE6337"/>
</g>
<defs>
<clipPath id="clip0_869_4932">
<rect width="33.6" height="38.7" fill="white" transform="translate(0 4)"/>
</clipPath>
</defs>
</svg>
